inDegrees=yes
name=ik_Xsens_quaternion
DataType=double
version=3
OpenSimVersion=4.4-2022-07-23-0e9fedc
endheader
time	pelvis_tilt	pelvis_list	pelvis_rotation	pelvis_tx	pelvis_ty	pelvis_tz	hip_flexion_r	hip_adduction_r	hip_rotation_r	knee_angle_r	knee_angle_r_beta	ankle_angle_r	subtalar_angle_r	mtp_angle_r	hip_flexion_l	hip_adduction_l	hip_rotation_l	knee_angle_l	knee_angle_l_beta	ankle_angle_l	subtalar_angle_l	mtp_angle_l	lumbar_extension	lumbar_bending	lumbar_rotation	arm_flex_r	arm_add_r	arm_rot_r	elbow_flex_r	pro_sup_r	wrist_flex_r	wrist_dev_r	arm_flex_l	arm_add_l	arm_rot_l	elbow_flex_l	pro_sup_l	wrist_flex_l	wrist_dev_l
75.31666666666666	0	0	0	0	0.93	0	0	0	0	0	-9.183549615799121e-41	0	0	0	0	0	0	0	-9.183549615799121e-41	0	0	0	0	0	0	143.7322387560182	27.75130179161304	-42.75067774747088	0.004709301512469818	-0.001331787867078932	0	0	648.5166997735715	-56.07306821298574	617.1312335819329	-0.0009313082326552508	-0.00834740251671078	0	0
75.33333333333333	0	0	0	0	0.93	0	0	0	0	0	0	0	0	0	0	0	0	0	0	0	0	0	0	0	0	143.602527993168	27.33026930278757	-42.50785711407605	0.004709301512469818	-0.001331787867078932	0	0	648.4846647246368	-56.03166487559291	617.0719229789593	-0.0009313082326552508	-0.00834740251671078	0	0
75.34999999999999	1.30944864442372e-24	-4.626174477422479e-16	-1.290218994900158e-24	-8.745105614525098e-18	0.93	-1.375334191293175e-17	7.515273235604856e-26	7.144611334803585e-16	0	0	-2.267958283234115e-16	-6.788041136717848e-19	1.292014819533425e-16	4.900096887958494e-17	-1.842324997614906e-16	-3.879409832270648e-34	-3.301557130482779e-25	0	-2.268407516479164e-16	8.953511884475215e-17	1.029861867555264e-15	-2.678228628488419e-16	-3.169287083331966e-24	8.661002167349902e-14	9.658916656331777e-14	143.4419024295757	26.8954424312857	-42.24574196481259	0.004709301512469835	-0.001331787867078922	4.342941116083819e-16	1.572320200110847e-16	648.4434742338663	-55.99175985961681	617.0024581777693	-0.0009313082326552761	-0.008347402516710819	4.33880129273087e-16	1.846217659857004e-16
75.36666666666666	0	0	0	0	0.93	0	0	0	0	0	1.29332841764859e-41	0	0	0	0	0	0	4.346555285272099e-40	1.29332841764859e-41	0	0	0	0	0	0	143.2265045744682	26.46519522487359	-41.91796716216047	0.004709301512469835	-0.001331787867078922	0	0	648.4131754156253	-55.94338667612458	616.9347244978773	-0.0009313082326552761	-0.008347402516710819	0	0
75.38333333333333	0	0	0	0	0.93	0	0	0	0	0	0	0	0	0	0	0	0	0	0	0	0	0	0	0	0	142.96233743164	26.04053468473724	-41.52822283452483	0.004709301512469835	-0.001331787867078922	0	0	648.4009832582968	-55.88558607461655	616.8920360771712	-0.0009313082326552761	-0.008347402516710819	0	0
75.40000000000001	-4.811796471768984e-25	-1.428713322551063e-15	6.402492128081068e-25	1.302874482686827e-22	0.93	6.53501863881776e-23	-1.712543918179031e-31	1.461558619891451e-21	0	0	-2.199073552367085e-16	-1.545537461568092e-20	-9.123473148397073e-18	4.605517346891068e-17	8.332288610398801e-21	-1.135310365027847e-28	-6.081524248607061e-19	0	-2.199242488367661e-16	2.145995409288666e-17	-2.0796242726147e-21	5.706721292709709e-17	3.58486794986644e-25	-3.531944004530066e-18	1.759804468968691e-24	142.6592608229306	25.6219919926799	-41.07071074971326	0.004709301512469836	-0.001331787867078923	2.041355474571195e-17	1.894476290993721e-16	648.4053338703387	-55.82939570984941	616.8995550650624	-0.0009313082326552809	-0.008347402516710819	-9.892880558589737e-22	-1.378239551135893e-17
75.41666666666667	0	0	0	0	0.93	0	0	0	0	0	0	0	0	0	0	0	0	0	0	0	0	0	0	0	0	142.3294603596561	25.20965504976845	-40.59556735283362	0.004709301512469836	-0.001331787867078923	0	0	648.4416217391359	-55.7799856611929	616.9711878118585	-0.0009313082326552809	-0.008347402516710819	0	0
75.43333333333334	-1.528975255820351e-28	-1.564983407833342e-21	1.44061108239404e-27	2.851786950875216e-22	0.93	4.824228815774668e-35	1.862408106272868e-25	3.59356104954231e-23	3.340202580855479e-23	0	-3.813734256916593e-16	8.005068606895536e-20	1.623740512732254e-18	3.99662510072616e-19	-7.199721223844276e-23	4.890885171806412e-19	-1.745080360526917e-19	0	-3.813701724200786e-16	1.512529803484792e-19	-1.00753067647955e-17	6.501546201003583e-21	-2.273575783262745e-18	5.605340307736498e-19	-6.63326082374792e-20	141.9663551360693	24.78936636677552	-40.09371148789961	0.004709301512469836	-0.001331787867078923	9.688560789272652e-19	-7.013282129787185e-23	648.5056824965666	-55.73457795958439	617.1072731069938	-0.0009313082326552807	-0.00834740251671082	1.546227517977964e-20	-4.167518517367961e-23
75.45	0	0	0	0	0.93	0	0	0	0	0	0	0	0	0	0	0	0	0	0	0	0	0	0	0	0	141.5842869396066	24.35996296206455	-39.62405771998375	0.004709301512469839	-0.001331787867078922	0	0	648.6029178623128	-55.69315369172121	617.3049309641845	-0.00093130823265528	-0.00834740251671082	0	0
75.46666666666667	0	0	0	0	0.93	0	0	0	0	0	0	0	0	0	0	0	0	0	0	0	0	0	0	0	0	141.174230949923	23.9379885955524	-39.19317775899665	0.004709301512469839	-0.001331787867078922	0	0	648.6804959788725	-55.65168997996393	617.4902641353364	-0.00093130823265528	-0.00834740251671082	0	0
75.48333333333333	0	0	0	0	0.93	0	0	0	0	0	-1.836709923159824e-40	0	0	0	0	0	0	0	-1.836709923159824e-40	0	0	0	0	0	0	140.7555045721725	23.52139914047459	-38.79876239983795	0.004709301512469839	-0.001331787867078922	0	0	648.7716559318493	-55.60845542935168	617.657400077576	-0.00093130823265528	-0.00834740251671082	0	0
75.5	1.965090425375459e-12	8.091498983088784e-13	3.376674792199432e-12	0	0.93	0	-3.426449392989632e-38	3.575411767415063e-39	0	2.909040080420734e-07	5.077232727110941e-09	-5.363117666486756e-38	0	0	-3.426449392989632e-38	3.575411767415063e-39	0	2.909040080420734e-07	5.077232727110941e-09	-5.363117666486756e-38	0	0	1.965090425375796e-12	8.091498983084225e-13	3.376674792199009e-12	140.315558829111	23.11405700305665	-38.41245234378333	0.004709301512469839	-0.001331787867078922	0	-2.349556294267495e-38	648.8639951114483	-55.56345003390548	617.7635447430373	-0.00093130823265528	-0.00834740251671082	0	-2.349556294267495e-38
75.51666666666667	0	0	0	0	0.93	0	0	0	0	3.802161702461268e-40	0	0	0	0	0	0	0	3.802161702461268e-40	0	0	0	0	0	0	0	139.8641974990479	22.70961971002389	-38.02449041959376	0.004709301512469839	-0.001331787867078922	0	0	648.9217719569156	-55.52076506004664	617.7765501968983	-0.00093130823265528	-0.00834740251671082	0	0
75.53333333333333	1.378093272228603e-27	-7.581592715673062e-21	-1.379539085168536e-25	-7.857515300672507e-20	0.93	3.159728815010309e-35	-7.584068458909691e-27	-1.828101081255614e-22	8.662907379520769e-23	0	-1.140717423160179e-16	-9.01794089716655e-20	-2.52002166666957e-21	1.476232557586988e-18	-3.64153002370638e-23	3.316932320833076e-19	6.666785303167639e-19	0	-1.140721837060507e-16	4.643583868483248e-20	7.282295410534686e-22	-9.402934606974622e-18	-8.779684030310721e-19	-2.328202553554803e-18	9.835311320131099e-18	139.4008901350599	22.2969542331578	-37.6578390063228	0.00470930151246984	-0.001331787867078922	2.384953987025211e-19	-5.796149387110942e-19	648.9695148260122	-55.48286926464188	617.7312044761721	-0.0009313082326552815	-0.008347402516710822	-4.079292752488372e-18	-1.405442692564972e-18
75.55	0	0	0	0	0.93	0	0	0	0	0	0	0	0	0	0	0	0	0	0	0	0	0	0	0	0	138.9362587367034	21.87910043598901	-37.31748874579512	0.00470930151246984	-0.001331787867078922	0	0	649.0063238189471	-55.45587722091786	617.6859555773246	-0.0009313082326552815	-0.008347402516710822	0	0
75.56666666666666	-2.559043040437306e-27	3.240940659261289e-18	3.535166176557849e-26	5.061655701907652e-27	0.93	5.765274601122695e-26	-1.173000461205812e-33	-1.897544794939256e-24	0	0	-4.505114060469628e-16	-5.140087213126625e-21	1.98754289244616e-21	7.283415179437635e-20	6.562488714296059e-24	3.649339276940152e-32	2.220045642575105e-23	0	-4.505605764004889e-16	2.281775259175599e-22	2.15430657881988e-17	-1.732148526585253e-17	-2.559043040437306e-27	9.907674520502186e-21	4.505371779440529e-23	138.4680599075162	21.45455110260345	-36.98350605235348	0.00470930151246984	-0.001331787867078922	-6.515630022596901e-21	1.016987789045287e-18	649.0430632049266	-55.43802860597365	617.6756441822796	-0.0009313082326552815	-0.008347402516710822	1.961354193427468e-22	5.950490773441868e-20
